<svg width="24" height="24" viewBox="0 0 24 24" fill="none" xmlns="http://www.w3.org/2000/svg">
<path d="M23 9.5C22.9989 8.57209 22.6298 7.6825 21.9736 7.02637C21.3175 6.37023 20.4279 6.00112 19.5 6C18.98 6.00279 18.4673 6.12279 18 6.35107V4.5C18.0011 3.80421 17.7944 3.12395 17.4065 2.54633C17.0186 1.96871 16.4671 1.52003 15.8226 1.25777C15.1781 0.9955 14.4701 0.931582 13.789 1.0742C13.108 1.21682 12.4851 1.55948 12 2.05829C11.4244 1.45964 10.6539 1.08612 9.82739 1.00496C9.00086 0.923806 8.1725 1.14034 7.49141 1.61559C6.81032 2.09084 6.32123 2.7936 6.11218 3.59737C5.90313 4.40114 5.98784 5.25313 6.35107 6H4.5C3.80421 5.99894 3.12395 6.2056 2.54633 6.59351C1.96871 6.98142 1.52003 7.53293 1.25777 8.1774C0.9955 8.82186 0.931582 9.52995 1.0742 10.211C1.21682 10.892 1.55948 11.5149 2.05829 12C1.45964 12.5756 1.08612 13.3461 1.00496 14.1726C0.923806 14.9991 1.14034 15.8275 1.61559 16.5086C2.09084 17.1897 2.7936 17.6788 3.59737 17.8878C4.40114 18.0969 5.25313 18.0122 6 17.6489V19.5C5.99894 20.1958 6.2056 20.8761 6.59351 21.4537C6.98142 22.0313 7.53293 22.48 8.1774 22.7422C8.82186 23.0045 9.52995 23.0684 10.211 22.9258C10.892 22.7832 11.5149 22.4405 12 21.9417C12.5756 22.5404 13.3461 22.9139 14.1726 22.995C14.9991 23.0762 15.8275 22.8597 16.5086 22.3844C17.1897 21.9092 17.6788 21.2064 17.8878 20.4026C18.0969 19.5989 18.0122 18.7469 17.6489 18H19.5C20.1958 18.0011 20.8761 17.7944 21.4537 17.4065C22.0313 17.0186 22.48 16.4671 22.7422 15.8226C23.0045 15.1781 23.0684 14.4701 22.9258 13.789C22.7832 13.108 22.4405 12.4851 21.9417 12C22.2764 11.6753 22.5425 11.2867 22.7242 10.8573C22.906 10.4278 22.9998 9.96631 23 9.5V9.5ZM13 4.5C13 4.10218 13.158 3.72064 13.4393 3.43934C13.7206 3.15804 14.1022 3 14.5 3C14.8978 3 15.2794 3.15804 15.5607 3.43934C15.842 3.72064 16 4.10218 16 4.5V9.5C16 9.89782 15.842 10.2794 15.5607 10.5607C15.2794 10.842 14.8978 11 14.5 11C14.1022 11 13.7206 10.842 13.4393 10.5607C13.158 10.2794 13 9.89782 13 9.5V4.5ZM6 14.5C6 14.7967 5.91203 15.0867 5.7472 15.3334C5.58238 15.58 5.34811 15.7723 5.07403 15.8858C4.79994 15.9994 4.49834 16.0291 4.20736 15.9712C3.91639 15.9133 3.64912 15.7704 3.43934 15.5607C3.22956 15.3509 3.0867 15.0836 3.02882 14.7926C2.97094 14.5017 3.00065 14.2001 3.11418 13.926C3.22771 13.6519 3.41997 13.4176 3.66664 13.2528C3.91332 13.088 4.20333 13 4.5 13H6V14.5ZM11 19.5C11 19.8978 10.842 20.2794 10.5607 20.5607C10.2794 20.842 9.89782 21 9.5 21C9.10218 21 8.72064 20.842 8.43934 20.5607C8.15804 20.2794 8 19.8978 8 19.5V14.5C8 14.1022 8.15804 13.7206 8.43934 13.4393C8.72064 13.158 9.10218 13 9.5 13C9.89782 13 10.2794 13.158 10.5607 13.4393C10.842 13.7206 11 14.1022 11 14.5V19.5ZM9.5 11H4.5C4.10218 11 3.72064 10.842 3.43934 10.5607C3.15804 10.2794 3 9.89782 3 9.5C3 9.10218 3.15804 8.72064 3.43934 8.43934C3.72064 8.15804 4.10218 8 4.5 8H9.5C9.89782 8 10.2794 8.15804 10.5607 8.43934C10.842 8.72064 11 9.10218 11 9.5C11 9.89782 10.842 10.2794 10.5607 10.5607C10.2794 10.842 9.89782 11 9.5 11ZM11 6H9.5C9.20333 6 8.91332 5.91203 8.66665 5.7472C8.41997 5.58238 8.22771 5.34811 8.11418 5.07403C8.00065 4.79994 7.97094 4.49834 8.02882 4.20736C8.0867 3.91639 8.22956 3.64912 8.43934 3.43934C8.64912 3.22956 8.91639 3.0867 9.20736 3.02882C9.49834 2.97094 9.79994 3.00065 10.074 3.11418C10.3481 3.22771 10.5824 3.41997 10.7472 3.66664C10.912 3.91332 11 4.20333 11 4.5V6ZM12 12.0583C11.9807 12.0385 11.9615 12.0193 11.9417 12C11.9615 11.9807 11.9807 11.9615 12 11.9417C12.0193 11.9615 12.0385 11.9807 12.0583 12C12.0385 12.0193 12.0193 12.0385 12 12.0583ZM14.5 21C14.1023 20.9996 13.721 20.8414 13.4398 20.5602C13.1586 20.279 13.0004 19.8977 13 19.5V18H14.5C14.8978 18 15.2794 18.158 15.5607 18.4393C15.842 18.7206 16 19.1022 16 19.5C16 19.8978 15.842 20.2794 15.5607 20.5607C15.2794 20.842 14.8978 21 14.5 21ZM19.5 16H14.5C14.1022 16 13.7206 15.842 13.4393 15.5607C13.158 15.2794 13 14.8978 13 14.5C13 14.1022 13.158 13.7206 13.4393 13.4393C13.7206 13.158 14.1022 13 14.5 13H19.5C19.8978 13 20.2794 13.158 20.5607 13.4393C20.842 13.7206 21 14.1022 21 14.5C21 14.8978 20.842 15.2794 20.5607 15.5607C20.2794 15.842 19.8978 16 19.5 16ZM19.5 11H18V9.5C18 9.20333 18.088 8.91332 18.2528 8.66665C18.4176 8.41997 18.6519 8.22771 18.926 8.11418C19.2001 8.00065 19.5017 7.97094 19.7926 8.02882C20.0836 8.0867 20.3509 8.22956 20.5607 8.43934C20.7704 8.64912 20.9133 8.91639 20.9712 9.20736C21.0291 9.49834 20.9993 9.79994 20.8858 10.074C20.7723 10.3481 20.58 10.5824 20.3334 10.7472C20.0867 10.912 19.7967 11 19.5 11Z" fill="black"/>
</svg>
